# xmcd
#
# Track frame offsets: 
#        182
#        8082
#        20315
#        45485
#        55537
#        67680
#        80942
#        97242
#        115015
#        128370
#        142717
#        154672
#
# Disc length: 2319 seconds
#
# Revision: 8
# Processed by: cddbd v1.5.2PL0 Copyright (c) Steve Scherf et al.
# Submitted via: ExactAudioCopyFreeDBPlugin 1.0
#
DISCID=84090d0c
DTITLE=The Knitters - Poor Little Critter on the Road
DYEAR=1985
DGENRE=Country
TTITLE0=Poor Little Critter on the Road
TTITLE1=Someone Like You
TTITLE2=Walkin' Cane
TTITLE3=Silver Wings
TTITLE4=Poor Old Heartsick Me
TTITLE5=The New World
TTITLE6=Cryin' But My Tears are Far Away
TTITLE7=Love Shack
TTITLE8=The Call of the Wreckin Ball
TTITLE9=Trail of Time
TTITLE10=Baby Out of Jail
TTITLE11=Rock Island Line
EXTD=Originally released 1985\nCD issued 1993, Slash, 25310-2 YEAR: 19
EXTD=85
EXTT0=
EXTT1=
EXTT2=
EXTT3=
EXTT4=
EXTT5=
EXTT6=
EXTT7=
EXTT8=
EXTT9=
EXTT10=
EXTT11=
PLAYORDER=
